<svg width="14" height="18" viewBox="0 0 14 18" fill="none" xmlns="http://www.w3.org/2000/svg">
<path d="M13.8127 7.23598C14.0952 5.3447 12.6552 4.328 10.6862 3.64975L11.3249 1.08777L9.76502 0.699124L9.14318 3.19358C8.73365 3.09143 8.31258 2.99504 7.89417 2.89954L8.52045 0.388649L6.96186 0L6.3227 2.56109C5.98335 2.4838 5.65022 2.4074 5.32687 2.32701L5.32864 2.31901L3.17797 1.78201L2.76312 3.44765C2.76312 3.44765 3.92018 3.71282 3.89575 3.72925C4.52736 3.88693 4.64196 4.3049 4.62241 4.63625L3.89486 7.55489C3.93839 7.566 3.9948 7.58199 4.05698 7.60686L3.89264 7.566L2.87238 11.6546C2.7951 11.8465 2.59922 12.1343 2.15771 12.025C2.17326 12.0477 1.02419 11.7421 1.02419 11.7421L0.25 13.5276L2.27986 14.0336C2.6574 14.1282 3.0274 14.2272 3.39117 14.3205L2.74579 16.9122L4.3035 17.3009L4.9431 14.7371C5.36818 14.8526 5.78125 14.9592 6.18545 15.0596L5.54851 17.6114L7.10799 18L7.75337 15.4136C10.4126 15.9168 12.4127 15.7139 13.2535 13.3091C13.9318 11.3725 13.2202 10.2554 11.8211 9.52656C12.84 9.29071 13.608 8.62046 13.8127 7.23598ZM10.2492 12.2324C9.76679 14.169 6.50658 13.1226 5.44901 12.8596L6.30537 9.42663C7.3625 9.69046 10.7515 10.2128 10.2492 12.2324ZM10.7311 7.20799C10.2914 8.96957 7.57748 8.07457 6.69669 7.85515L7.4731 4.74152C8.35389 4.96094 11.1895 5.37046 10.7311 7.20799Z" fill="white"/>
</svg>
