<svg width="34" height="34" viewBox="0 0 34 34" fill="none" xmlns="http://www.w3.org/2000/svg">
<rect width="34" height="34" rx="17" fill="#05A357"/>
<path d="M23.1361 17.2934H21.3402V16.7067H23.1361C23.7946 16.7067 24.3334 16.1787 24.3334 15.5334C24.3334 14.8881 23.7946 14.3601 23.1361 14.3601H21.3402V10.8401C21.3402 10.1947 20.8014 9.66675 20.1429 9.66675C19.4844 9.66675 18.9457 10.1947 18.9457 10.8401V14.3601H17.03L14.9348 10.3121C14.6953 9.84275 14.0967 9.54941 13.5579 9.72541C13.0191 9.84275 12.6599 10.3121 12.6599 10.8401V14.3601H10.864C10.2055 14.3601 9.66675 14.8881 9.66675 15.5334C9.66675 16.1787 10.2055 16.7067 10.864 16.7067H12.6599V17.2934H10.864C10.2055 17.2934 9.66675 17.8214 9.66675 18.4667C9.66675 19.1121 10.2055 19.6401 10.864 19.6401H12.6599V23.1601C12.6599 23.8054 13.1987 24.3334 13.8572 24.3334C14.5157 24.3334 15.0545 23.8054 15.0545 23.1601V19.6401H16.9701L19.0654 23.6881C19.245 24.0987 19.664 24.3334 20.1429 24.3334C20.2627 24.3334 20.3225 24.3334 20.4423 24.2747C20.981 24.1574 21.3402 23.6881 21.3402 23.1601V19.6401H23.1361C23.7946 19.6401 24.3334 19.1121 24.3334 18.4667C24.3334 17.8214 23.7946 17.2934 23.1361 17.2934ZM18.9457 16.7067V17.2934H18.4667L18.2273 16.7067H18.9457ZM15.0545 17.2934V16.7067H15.5334L15.8327 17.2347H15.0545V17.2934Z" fill="white"/>
</svg>
