<svg width="20" height="20" viewBox="0 0 20 20" fill="none" xmlns="http://www.w3.org/2000/svg">
<g clip-path="url(#clip0_11_589)">
<path fill-rule="evenodd" clip-rule="evenodd" d="M11.7679 0.767755C10.7916 -0.208556 9.20865 -0.208555 8.23234 0.767756L0.767877 8.23222C-0.208434 9.20853 -0.208432 10.7914 0.767878 11.7678L8.23234 19.2322C9.20865 20.2085 10.7916 20.2085 11.7679 19.2322L19.2323 11.7678C20.2087 10.7914 20.2087 9.20853 19.2323 8.23222L11.7679 0.767755ZM9.00005 5.99999C9.00005 5.4477 9.44776 4.99999 10 4.99999C10.5523 4.99999 11 5.4477 11 5.99999V9.99999C11 10.5523 10.5523 11 10 11C9.44776 11 9.00005 10.5523 9.00005 9.99999V5.99999ZM11 14C11 14.5523 10.5523 15 10 15C9.44776 15 9.00005 14.5523 9.00005 14C9.00005 13.4477 9.44776 13 10 13C10.5523 13 11 13.4477 11 14Z" fill="#D72C0D"/>
</g>
<defs>
<clipPath id="clip0_11_589">
<rect width="20" height="20" fill="white"/>
</clipPath>
</defs>
</svg>
