<svg width="16" height="16" viewBox="0 0 16 16" fill="none" xmlns="http://www.w3.org/2000/svg">
<path d="M14.136 8.29332H12.3401V7.70666H14.136C14.7945 7.70666 15.3333 7.17866 15.3333 6.53332C15.3333 5.88799 14.7945 5.35999 14.136 5.35999H12.3401V1.83999C12.3401 1.19466 11.8013 0.666656 11.1428 0.666656C10.4843 0.666656 9.94554 1.19466 9.94554 1.83999V5.35999H8.02989L5.93465 1.31199C5.6952 0.842656 5.09656 0.549323 4.55778 0.725323C4.01901 0.842656 3.65982 1.31199 3.65982 1.83999V5.35999H1.8639C1.2054 5.35999 0.666626 5.88799 0.666626 6.53332C0.666626 7.17866 1.2054 7.70666 1.8639 7.70666H3.65982V8.29332H1.8639C1.2054 8.29332 0.666626 8.82132 0.666626 9.46666C0.666626 10.112 1.2054 10.64 1.8639 10.64H3.65982V14.16C3.65982 14.8053 4.1986 15.3333 4.8571 15.3333C5.51561 15.3333 6.05438 14.8053 6.05438 14.16V10.64H7.97003L10.0653 14.688C10.2449 15.0987 10.6639 15.3333 11.1428 15.3333C11.2625 15.3333 11.3224 15.3333 11.4421 15.2747C11.9809 15.1573 12.3401 14.688 12.3401 14.16V10.64H14.136C14.7945 10.64 15.3333 10.112 15.3333 9.46666C15.3333 8.82132 14.7945 8.29332 14.136 8.29332ZM9.94554 7.70666V8.29332H9.46663L9.22717 7.70666H9.94554ZM6.05438 8.29332V7.70666H6.53329L6.83261 8.23466H6.05438V8.29332Z" fill="white"/>
</svg>
