<svg width="25" height="25" viewBox="0 0 25 25" fill="none" xmlns="http://www.w3.org/2000/svg">
<path d="M23.2758 5H1.7242C1.26692 5 0.828361 4.7366 0.505012 4.26776C0.181663 3.79891 0 3.16304 0 2.5C0 1.83696 0.181663 1.20107 0.505012 0.732231C0.828361 0.263389 1.26692 0 1.7242 0H23.2758C23.7331 0 24.1716 0.263389 24.495 0.732231C24.8183 1.20107 25 1.83696 25 2.5C25 3.16304 24.8183 3.79891 24.495 4.26776C24.1716 4.7366 23.7331 5 23.2758 5V5Z" fill="#3F3D56"/>
<path d="M23.2738 15H1.72619C1.49961 15.0004 1.27519 14.9361 1.06577 14.8107C0.856356 14.6852 0.666047 14.5011 0.505727 14.269C0.345406 14.0368 0.218223 13.761 0.131446 13.4575C0.0446693 13.1539 0 12.8286 0 12.5C0 12.1714 0.0446693 11.8461 0.131446 11.5425C0.218223 11.239 0.345406 10.9632 0.505727 10.731C0.666047 10.4989 0.856356 10.3148 1.06577 10.1893C1.27519 10.0639 1.49961 9.99956 1.72619 10H23.2738C23.5004 9.99956 23.7248 10.0639 23.9342 10.1893C24.1436 10.3148 24.334 10.4989 24.4943 10.731C24.6546 10.9632 24.7818 11.239 24.8686 11.5425C24.9553 11.8461 25 12.1714 25 12.5C25 12.8286 24.9553 13.1539 24.8686 13.4575C24.7818 13.761 24.6546 14.0368 24.4943 14.269C24.334 14.5011 24.1436 14.6852 23.9342 14.8107C23.7248 14.9361 23.5004 15.0004 23.2738 15V15Z" fill="#3F3D56"/>
<path d="M23.2738 25H1.72619C1.49961 25.0004 1.27519 24.9361 1.06577 24.8107C0.856356 24.6852 0.666047 24.5011 0.505727 24.269C0.345406 24.0368 0.218223 23.761 0.131446 23.4575C0.0446693 23.1539 0 22.8286 0 22.5C0 22.1714 0.0446693 21.8461 0.131446 21.5425C0.218223 21.239 0.345406 20.9632 0.505727 20.731C0.666047 20.4989 0.856356 20.3148 1.06577 20.1893C1.27519 20.0639 1.49961 19.9996 1.72619 20H23.2738C23.5004 19.9996 23.7248 20.0639 23.9342 20.1893C24.1436 20.3148 24.334 20.4989 24.4943 20.731C24.6546 20.9632 24.7818 21.239 24.8686 21.5425C24.9553 21.8461 25 22.1714 25 22.5C25 22.8286 24.9553 23.1539 24.8686 23.4575C24.7818 23.761 24.6546 24.0368 24.4943 24.269C24.334 24.5011 24.1436 24.6852 23.9342 24.8107C23.7248 24.9361 23.5004 25.0004 23.2738 25V25Z" fill="#3F3D56"/>
</svg>
