<svg width="34" height="34" viewBox="0 0 34 34" fill="none" xmlns="http://www.w3.org/2000/svg">
<rect width="34" height="34" rx="17" fill="#FF9900"/>
<path d="M23.8127 15.236C24.0952 13.3447 22.6552 12.328 20.6862 11.6497L21.3249 9.08777L19.765 8.69912L19.1432 11.1936C18.7337 11.0914 18.3126 10.995 17.8942 10.8995L18.5205 8.38865L16.9619 8L16.3227 10.5611C15.9834 10.4838 15.6502 10.4074 15.3269 10.327L15.3286 10.319L13.178 9.78201L12.7631 11.4476C12.7631 11.4476 13.9202 11.7128 13.8958 11.7293C14.5274 11.8869 14.642 12.3049 14.6224 12.6362L13.8949 15.5549C13.9384 15.566 13.9948 15.582 14.057 15.6069L13.8926 15.566L12.8724 19.6546C12.7951 19.8465 12.5992 20.1343 12.1577 20.025C12.1733 20.0477 11.0242 19.7421 11.0242 19.7421L10.25 21.5276L12.2799 22.0336C12.6574 22.1282 13.0274 22.2272 13.3912 22.3205L12.7458 24.9122L14.3035 25.3009L14.9431 22.7371C15.3682 22.8526 15.7813 22.9592 16.1854 23.0596L15.5485 25.6114L17.108 26L17.7534 23.4136C20.4126 23.9168 22.4127 23.7139 23.2535 21.3091C23.9318 19.3725 23.2202 18.2554 21.8211 17.5266C22.84 17.2907 23.608 16.6205 23.8127 15.236ZM20.2492 20.2324C19.7668 22.169 16.5066 21.1226 15.449 20.8596L16.3054 17.4266C17.3625 17.6905 20.7515 18.2128 20.2492 20.2324ZM20.7311 15.208C20.2914 16.9696 17.5775 16.0746 16.6967 15.8552L17.4731 12.7415C18.3539 12.9609 21.1895 13.3705 20.7311 15.208Z" fill="white"/>
</svg>
