<svg width="121" height="28" viewBox="0 0 121 28" fill="none" xmlns="http://www.w3.org/2000/svg">
<g clip-path="url(#clip0_2_164)">
<path fill-rule="evenodd" clip-rule="evenodd" d="M40.5567 14.6068C39.839 15.3666 39.4801 16.2762 39.4801 17.3373C39.4801 18.3985 39.839 19.309 40.5567 20.0683C41.2749 20.8281 42.1532 21.2073 43.194 21.2073C44.2552 21.2073 45.1448 20.8281 45.8626 20.0683C46.5803 19.309 46.9391 18.3985 46.9391 17.3373C46.9391 16.2762 46.5803 15.3666 45.8626 14.6068C45.1448 13.8475 44.2552 13.4678 43.194 13.4678C42.1532 13.4678 41.2749 13.8475 40.5567 14.6068ZM39.5114 11.2518C39.9064 10.6694 40.5096 10.196 41.3215 9.83176C42.1328 9.46838 43.0275 9.28556 44.0054 9.28556C46.0445 9.28556 47.7976 10.0245 49.2637 11.5016C50.7308 12.9791 51.4644 14.9141 51.4644 17.3061C51.4644 19.6783 50.72 21.6128 49.233 23.1111C47.7451 24.609 45.9716 25.3584 43.9117 25.3584C42.9754 25.3584 42.112 25.1814 41.3215 24.8275C40.5304 24.4741 39.9173 23.9958 39.4801 23.3921V24.6067C39.4801 24.7936 39.4177 24.9493 39.2928 25.0746C39.1683 25.1995 39.0122 25.2615 38.8249 25.2615H35.7038C35.4956 25.2615 35.3291 25.1995 35.2047 25.0746C35.0798 24.9493 35.0173 24.7936 35.0173 24.6067V3.73036C35.0173 3.54301 35.0798 3.38735 35.2047 3.26245C35.3291 3.13755 35.4956 3.0751 35.7038 3.0751H38.8561C39.0222 3.0751 39.1729 3.13755 39.3086 3.26245C39.4435 3.38735 39.5114 3.54301 39.5114 3.73036V11.2518Z" fill="black"/>
<path fill-rule="evenodd" clip-rule="evenodd" d="M57.799 10.0062V18.1802C57.799 19.2205 58.0587 20.0423 58.5796 20.6455C59.0991 21.2492 59.8688 21.5506 60.8888 21.5506C61.8875 21.5506 62.6623 21.2492 63.2139 20.6455C63.7651 20.0423 64.0406 19.2409 64.0406 18.2426V10.0062C64.0406 9.83968 64.1081 9.69441 64.2434 9.56907C64.3787 9.44417 64.5294 9.38217 64.6959 9.38217H67.8482C68.0559 9.38217 68.2229 9.45005 68.3478 9.5849C68.4727 9.72066 68.5351 9.88131 68.5351 10.0687V24.6065C68.5351 24.7938 68.4727 24.9495 68.3478 25.0744C68.2229 25.1993 68.0559 25.2617 67.8482 25.2617H64.6959C64.509 25.2617 64.3529 25.2047 64.228 25.0902C64.1035 24.9762 64.0406 24.8246 64.0406 24.6377V23.3295C62.9175 24.6821 61.3983 25.3581 59.4846 25.3581C57.5908 25.3581 56.0875 24.7703 54.9747 23.5946C53.8615 22.4194 53.3049 20.8641 53.3049 18.9291V10.0062C53.3049 9.83968 53.3773 9.69441 53.5235 9.56907C53.6688 9.44417 53.8249 9.38217 53.9919 9.38217H57.1125C57.2994 9.38217 57.4605 9.44417 57.5962 9.56907C57.7315 9.69441 57.799 9.83968 57.799 10.0062Z" fill="black"/>
<path fill-rule="evenodd" clip-rule="evenodd" d="M77.304 9.28564C78.6775 9.28564 79.8893 9.47842 80.9401 9.86307C81.9904 10.2482 82.7968 10.7007 83.3588 11.2206C83.858 11.6161 83.8783 12.0741 83.4213 12.5936L82.2664 13.9046C81.8917 14.3413 81.3926 14.3729 80.7681 13.9982C79.5404 13.1869 78.386 12.7814 77.304 12.7814C76.7216 12.7814 76.2478 12.89 75.884 13.1086C75.5202 13.3271 75.3378 13.5928 75.3378 13.9046C75.3378 14.5082 75.9202 14.9241 77.0859 15.1526L79.4888 15.621C82.6303 16.2247 84.201 17.7537 84.201 20.2087C84.201 21.7066 83.5665 22.9392 82.2977 23.9072C81.0279 24.8742 79.3743 25.3584 77.3353 25.3584C75.0885 25.3584 73.1639 24.7959 71.5619 23.6728C70.2718 22.7786 70.0532 21.9984 70.9062 21.3323L72.2792 20.2711C72.7788 19.8965 73.2888 19.9281 73.8087 20.3644C74.974 21.3844 76.2008 21.8939 77.4914 21.8939C78.1571 21.8939 78.672 21.769 79.0363 21.5197C79.4001 21.2694 79.5825 20.9685 79.5825 20.6146C79.5825 20.2607 79.4105 19.9852 79.0671 19.7874C78.7245 19.5896 78.1675 19.4186 77.3977 19.2724L74.9011 18.7416C73.6318 18.4923 72.6276 17.9827 71.8896 17.213C71.1506 16.4432 70.7818 15.4549 70.7818 14.2476C70.7818 12.833 71.3742 11.6524 72.5607 10.7057C73.7467 9.75899 75.3274 9.28564 77.304 9.28564Z" fill="black"/>
<path fill-rule="evenodd" clip-rule="evenodd" d="M97.5584 24.6375V17.088C97.5584 15.9852 97.2566 15.101 96.6534 14.4353C96.0497 13.7696 95.2175 13.4366 94.1563 13.4366C93.0956 13.4366 92.2422 13.7751 91.5973 14.4507C90.9525 15.1272 90.6298 16.006 90.6298 17.088V24.6375C90.6298 24.8248 90.5624 24.976 90.4271 25.09C90.2913 25.2045 90.1307 25.2615 89.9438 25.2615H86.7915C86.6041 25.2615 86.448 25.1995 86.3236 25.0746C86.1982 24.9493 86.1362 24.7936 86.1362 24.6067V3.73036C86.1362 3.54301 86.1982 3.38735 86.3236 3.26245C86.448 3.13755 86.6041 3.0751 86.7915 3.0751H89.9438C90.1307 3.0751 90.2913 3.13303 90.4271 3.24661C90.5624 3.3611 90.6298 3.51224 90.6298 3.69914V11.3142C91.7539 9.96163 93.397 9.28556 95.561 9.28556C97.5372 9.28556 99.1187 9.91004 100.305 11.1581C101.49 12.4066 102.084 13.9773 102.084 15.8707V24.6375C102.084 24.8248 102.016 24.976 101.881 25.09C101.745 25.2045 101.584 25.2615 101.397 25.2615H98.2454C98.058 25.2615 97.8965 25.2045 97.7612 25.09C97.6254 24.976 97.5584 24.8248 97.5584 24.6375Z" fill="black"/>
<mask id="mask0_2_164" style="mask-type:alpha" maskUnits="userSpaceOnUse" x="103" y="9" width="18" height="17">
<path d="M103.925 9.28555H120.372V25.3583H103.925V9.28555Z" fill="white"/>
</mask>
<g mask="url(#mask0_2_164)">
<path fill-rule="evenodd" clip-rule="evenodd" d="M109.542 14.6068C108.835 15.3666 108.481 16.2762 108.481 17.3373C108.481 18.3985 108.835 19.309 109.542 20.0683C110.249 20.8281 111.134 21.2073 112.195 21.2073C113.256 21.2073 114.14 20.8281 114.848 20.0683C115.555 19.309 115.909 18.3985 115.909 17.3373C115.909 16.2762 115.555 15.3666 114.848 14.6068C114.14 13.8475 113.256 13.4678 112.195 13.4678C111.134 13.4678 110.249 13.8475 109.542 14.6068ZM106.187 23.1111C104.679 21.6128 103.925 19.6782 103.925 17.3061C103.925 14.9344 104.679 13.0049 106.187 11.517C107.696 10.03 109.48 9.28555 111.54 9.28555C112.517 9.28555 113.397 9.47833 114.177 9.86298C114.957 10.2481 115.534 10.7422 115.909 11.3454V10.0684C115.909 9.88153 115.976 9.72043 116.112 9.58467C116.247 9.44982 116.397 9.38194 116.564 9.38194H119.716C119.903 9.38194 120.06 9.44982 120.184 9.58467C120.309 9.72043 120.372 9.88153 120.372 10.0684V24.6067C120.372 24.7936 120.309 24.9493 120.184 25.0746C120.06 25.1995 119.903 25.2615 119.716 25.2615H116.564C116.397 25.2615 116.247 25.1995 116.112 25.0746C115.976 24.9493 115.909 24.7936 115.909 24.6067V23.2984C115.534 23.9021 114.957 24.3958 114.177 24.7805C113.397 25.1656 112.507 25.3583 111.509 25.3583C109.469 25.3583 107.696 24.609 106.187 23.1111Z" fill="black"/>
</g>
<mask id="mask1_2_164" style="mask-type:alpha" maskUnits="userSpaceOnUse" x="3" y="0" width="24" height="17">
<path d="M3.87866 0.452759H26.584V16.1697H3.87866V0.452759Z" fill="white"/>
</mask>
<g mask="url(#mask1_2_164)">
<path fill-rule="evenodd" clip-rule="evenodd" d="M24.7134 15.3379L23.4192 16.1697L20.7669 11.3652C19.2985 8.70076 16.4951 7.04588 13.4527 7.04588H3.87866L13.2541 1.03136C14.6958 0.1064 16.5883 0.306869 17.8051 1.5133L25.3818 9.02975C27.2285 10.862 26.9027 13.9329 24.7134 15.3379Z" fill="#18981D"/>
</g>
<mask id="mask2_2_164" style="mask-type:alpha" maskUnits="userSpaceOnUse" x="0" y="8" width="26" height="20">
<path d="M0 8.98019H25.0934V27.9808H0V8.98019Z" fill="white"/>
</mask>
<g mask="url(#mask2_2_164)">
<path fill-rule="evenodd" clip-rule="evenodd" d="M21.2842 27.9808H10.0199C8.89088 27.9808 7.8641 27.3247 7.38895 26.3015L0.216875 10.8727L0.110079 10.6405C-0.0410642 10.3133 -0.0292986 9.96851 0.101029 9.67663C0.110079 9.65581 0.120487 9.63636 0.130895 9.61554C0.255792 9.37253 0.463501 9.17387 0.725514 9.06844C0.860819 9.01232 1.01015 8.98019 1.16854 8.98019H13.4528C15.7914 8.98019 17.9441 10.2518 19.0731 12.299L21.7869 17.2162L24.6148 22.3392C26.0131 24.8751 24.1803 27.9808 21.2842 27.9808Z" fill="#04A700"/>
</g>
</g>
<defs>
<clipPath id="clip0_2_164">
<rect width="120.4" height="28" fill="white"/>
</clipPath>
</defs>
</svg>
