<svg width="36" height="36" viewBox="0 0 36 36" fill="none" xmlns="http://www.w3.org/2000/svg">
<circle cx="18" cy="18" r="18" fill="#9AA5B1" fill-opacity="0.3"/>
<path d="M10.882 17.7C10.882 19.59 11.458 21.138 12.628 22.38C13.798 23.604 15.31 24.216 17.146 24.216C18.982 24.216 20.476 23.604 21.646 22.38C22.816 21.138 23.41 19.59 23.41 17.7C23.41 15.828 22.816 14.28 21.646 13.038C20.476 11.796 18.982 11.184 17.146 11.184C15.31 11.184 13.798 11.796 12.628 13.038C11.458 14.28 10.882 15.828 10.882 17.7ZM21.178 17.7C21.178 18.996 20.8 20.076 20.026 20.958C19.252 21.84 18.298 22.272 17.146 22.272C15.976 22.272 15.022 21.84 14.248 20.958C13.492 20.076 13.114 18.996 13.114 17.7C13.114 16.422 13.492 15.342 14.266 14.46C15.04 13.578 15.994 13.128 17.146 13.128C18.298 13.128 19.252 13.578 20.026 14.46C20.8 15.342 21.178 16.422 21.178 17.7Z" fill="#3E4C59"/>
</svg>
