<svg width="114" height="25" viewBox="0 0 114 25" fill="none" xmlns="http://www.w3.org/2000/svg">
<path d="M11.936 24L16.224 8.864L20.544 24H25.216L31.968 1.6H27.168L22.88 17.248L18.72 1.6H13.92L9.76 17.312L5.44 1.6H0.544L7.296 24H11.936ZM47.032 24V13.76C47.032 9.792 44.536 7.36 40.088 7.36C37.24 7.36 34.392 8.704 32.312 10.912L34.744 13.536C36.504 11.904 38.136 11.136 39.64 11.136C41.4 11.136 42.36 11.872 42.52 13.376L37.496 14.56C34.072 15.36 32.312 17.088 32.312 19.68C32.312 22.464 34.392 24.384 37.592 24.384C39.864 24.384 41.656 23.52 42.808 21.76V24H47.032ZM36.92 19.2C36.92 18.272 37.592 17.696 38.968 17.344L42.552 16.512V16.864C42.552 19.168 40.888 20.832 38.84 20.832C37.56 20.832 36.92 20.256 36.92 19.2ZM55.6888 24V0.639999H51.0807V24H55.6888ZM64.5638 24V0.639999H59.9557V24H64.5638ZM76.2548 24.384C79.3588 24.384 81.6308 23.424 83.2948 21.376L80.7348 18.688C79.6788 20 78.1748 20.736 76.6068 20.736C74.1748 20.736 72.7028 19.456 72.4148 16.992H83.4548C83.4868 16.512 83.5508 15.808 83.5508 15.136C83.5508 12.8 82.8787 10.912 81.5028 9.504C80.1268 8.064 78.3348 7.36 76.0948 7.36C73.6948 7.36 71.7428 8.16 70.1748 9.76C68.6388 11.36 67.8708 13.408 67.8708 15.872C67.8708 18.464 68.6388 20.544 70.1428 22.08C71.6468 23.616 73.6948 24.384 76.2548 24.384ZM76.0308 10.784C77.8228 10.784 78.9108 11.936 79.0388 14.016H72.5108C72.9268 11.936 74.2068 10.784 76.0308 10.784ZM87.953 19.104C87.953 22.56 89.937 24.384 93.777 24.384C95.537 24.384 97.137 23.872 98.321 22.976L97.201 19.584C96.081 20.224 95.409 20.48 94.641 20.48C93.137 20.48 92.561 19.936 92.561 18.368V11.36H97.009V7.744H92.561V1.6L87.953 3.168V7.744H85.329V11.36H87.953V19.104ZM113.411 18.912C113.411 16.48 111.939 14.976 108.643 14.208L105.987 13.568C104.835 13.312 104.451 12.896 104.451 12.224C104.451 11.424 105.187 10.912 106.562 10.912C108.003 10.912 109.443 11.424 111.203 12.704L113.251 9.44C111.171 8 108.995 7.36 106.531 7.36C104.643 7.36 103.139 7.84 101.955 8.832C100.771 9.792 100.195 10.976 100.195 12.384C100.195 14.944 101.763 16.64 104.835 17.312L107.139 17.824C108.547 18.112 109.059 18.528 109.059 19.296C109.059 20.288 108.163 20.864 106.595 20.864C104.835 20.864 102.947 20.128 101.411 18.88L99.3305 22.048C101.347 23.552 103.971 24.384 106.883 24.384C110.883 24.384 113.411 22.144 113.411 18.912Z" fill="black"/>
</svg>
